<?xml version="1.0" standalone="no"?>
<!DOCTYPE svg PUBLIC "-//W3C//DTD SVG 20010904//EN"
 "http://www.w3.org/TR/2001/REC-SVG-20010904/DTD/svg10.dtd">
<svg version="1.0" xmlns="http://www.w3.org/2000/svg"
 width="512.000000pt" height="512.000000pt" viewBox="0 0 512.000000 512.000000"
 preserveAspectRatio="xMidYMid meet">

<g transform="translate(0.000000,512.000000) scale(0.100000,-0.100000)"
fill="#000000" stroke="none">
<path d="M915 4945 c-355 -66 -630 -321 -727 -676 l-23 -84 0 -1625 0 -1625
23 -84 c90 -331 332 -573 664 -663 l83 -23 1625 0 c1516 0 1630 1 1693 18 336
86 588 334 679 669 l23 83 0 1625 0 1625 -23 84 c-90 329 -329 570 -660 664
l-77 22 -1605 2 c-1282 1 -1619 -1 -1675 -12z m3267 -324 c224 -58 381 -215
439 -439 18 -73 19 -125 19 -1622 0 -1497 -1 -1549 -19 -1622 -58 -224 -215
-381 -439 -439 -73 -18 -125 -19 -1622 -19 -1508 0 -1549 0 -1624 20 -226 58
-391 228 -441 455 -14 62 -15 250 -13 1640 l3 1570 21 55 c59 154 126 241 248
321 61 40 144 75 211 89 22 4 738 8 1591 9 1503 1 1553 0 1626 -18z"/>
<path d="M1018 4144 c-59 -31 -58 -23 -58 -615 0 -528 1 -544 21 -585 27 -57
75 -86 139 -86 64 0 112 29 139 86 20 40 21 59 21 357 l0 314 1165 -1165 1165
-1165 -322 -5 c-360 -6 -366 -7 -408 -75 -49 -79 -19 -184 64 -224 41 -20 57
-21 585 -21 595 0 584 -1 616 60 13 25 15 106 15 571 0 528 -1 544 -21 585
-55 115 -222 116 -279 3 -19 -36 -20 -60 -20 -356 l0 -318 -1165 1165 -1165
1165 322 5 c310 5 324 6 358 27 48 30 72 75 72 133 0 64 -30 112 -86 139 -41
20 -56 21 -587 21 -462 -1 -548 -3 -571 -16z"/>
</g>
</svg>
