<?xml version="1.0" standalone="no"?>
<!DOCTYPE svg PUBLIC "-//W3C//DTD SVG 20010904//EN"
 "http://www.w3.org/TR/2001/REC-SVG-20010904/DTD/svg10.dtd">
<svg version="1.0" xmlns="http://www.w3.org/2000/svg"
 width="980.000000pt" height="980.000000pt" viewBox="0 0 980.000000 980.000000"
 preserveAspectRatio="xMidYMid meet">

<g transform="translate(0.000000,980.000000) scale(0.100000,-0.100000)"
fill="#000000" stroke="none">
<path d="M4820 7823 c-70 -36 -70 -32 -70 -556 0 -413 2 -473 16 -503 28 -59
102 -81 164 -49 60 31 60 28 60 552 0 509 0 508 -50 544 -38 28 -80 32 -120
12z"/>
<path d="M6815 7011 c-56 -35 -683 -674 -690 -704 -26 -103 78 -183 173 -133
29 16 649 635 676 676 9 13 16 39 16 58 0 95 -97 152 -175 103z"/>
<path d="M2823 6970 c-17 -10 -37 -28 -42 -39 -15 -28 -14 -87 3 -119 18 -34
652 -665 685 -682 30 -15 82 -15 110 0 49 26 75 104 50 153 -16 31 -658 675
-691 693 -37 19 -77 18 -115 -6z"/>
<path d="M4732 6400 c-806 -102 -1344 -879 -1147 -1657 50 -195 120 -334 275
-541 192 -258 280 -488 299 -782 8 -124 20 -157 67 -178 57 -27 124 -9 154 40
25 41 26 127 5 275 -38 271 -134 508 -294 730 -148 205 -163 229 -201 308
-132 274 -142 608 -29 882 250 602 943 863 1522 572 290 -147 511 -438 578
-762 30 -145 23 -370 -15 -507 -35 -123 -99 -255 -172 -355 -201 -275 -287
-453 -344 -710 -28 -127 -45 -354 -30 -399 28 -85 128 -114 192 -58 31 29 31
30 40 158 22 350 95 539 342 879 270 372 321 885 132 1315 -175 398 -558 700
-983 775 -112 19 -297 26 -391 15z"/>
<path d="M6742 5012 c-17 -16 -34 -41 -38 -56 -11 -44 12 -104 49 -126 31 -19
54 -20 515 -20 530 0 526 0 557 60 28 55 12 120 -39 154 -23 14 -77 16 -520
16 l-494 0 -30 -28z"/>
<path d="M2044 4979 c-96 -28 -112 -168 -24 -214 25 -13 100 -15 509 -15 320
0 488 4 503 11 59 27 83 111 48 167 -38 62 -41 62 -547 61 -252 0 -472 -5
-489 -10z"/>
<path d="M6224 3661 c-71 -43 -84 -111 -35 -177 16 -21 170 -179 342 -351 348
-345 359 -353 433 -318 44 21 66 59 66 117 l0 42 -337 339 c-188 189 -352 345
-370 353 -43 19 -62 18 -99 -5z"/>
<path d="M3520 3629 c-30 -12 -675 -653 -696 -691 -46 -88 27 -191 124 -173
32 5 85 54 370 338 183 183 340 344 348 359 27 52 10 127 -36 156 -27 17 -82
22 -110 11z"/>
<path d="M4334 3170 c-56 -6 -78 -19 -100 -61 -18 -36 -18 -73 1 -109 32 -61
19 -60 643 -60 l570 0 30 28 c36 33 47 68 38 116 -8 40 -56 86 -89 86 -604 4
-1053 4 -1093 0z"/>
<path d="M4278 2844 c-53 -28 -72 -98 -43 -154 32 -63 3 -60 638 -60 l579 0
35 35 c33 33 35 39 31 86 -4 38 -12 58 -32 77 l-26 27 -578 2 c-497 2 -581 0
-604 -13z"/>
<path d="M4278 2532 c-31 -18 -58 -67 -58 -104 0 -34 34 -85 70 -103 27 -14
96 -15 596 -13 l566 3 34 37 c38 43 45 88 19 138 -32 61 -19 60 -637 60 -512
-1 -565 -2 -590 -18z"/>
<path d="M4518 2185 c-57 -32 -76 -120 -36 -170 41 -52 62 -55 381 -55 162 0
309 3 326 6 18 4 45 20 62 36 24 25 29 38 29 79 0 40 -5 55 -29 81 l-29 33
-339 2 c-285 2 -342 0 -365 -12z"/>
</g>
</svg>
