<?xml version="1.0" encoding="utf-8"?>
<!-- Generator: Adobe Illustrator 27.5.0, SVG Export Plug-In . SVG Version: 6.00 Build 0)  -->
<svg version="1.1" id="Calque_1" xmlns="http://www.w3.org/2000/svg" xmlns:xlink="http://www.w3.org/1999/xlink" x="0px" y="0px"
	 viewBox="0 0 1920 1080" style="enable-background:new 0 0 1920 1080;" xml:space="preserve">
<g>
	<path d="M1004.94,1038.78c6.26-10.73,11.81-20.38,17.49-29.95c16.83-28.36,33.95-56.58,45.72-87.55
		c40.69-107.06,37-213.27-11.18-316.54C1000.58,483.88,905,409.81,775.38,379.56c-35.4-8.26-71.51-10-107.77-9.71
		c-65.32,0.52-130.64,0.88-195.95,1.3c-1.97,0.01-3.94,0-7.31,0c-1.03-14.53-3.31-28.78-2.79-42.93
		c1.54-41.84,14.65-79.84,42.17-111.91c36.62-42.67,83.14-63.87,139.67-63.71c88.82,0.26,177.64-0.16,266.46-0.21
		c44.16-0.03,88.32,0.11,132.48,0.17c1.98,0,3.96,0,6.7,0c-0.89,7.27-1.68,14.12-2.56,20.95c-4.43,34.15-4.32,68.13,4,101.77
		c12.63,51.1,41.17,91.86,81.27,125.16c34.43,28.59,73.11,47.78,117.78,54.03c26.32,3.69,52.5,2.64,78.61-1.89
		c1.48-0.26,2.95-0.54,4.43-0.77c12.72-1.96,16.32,1.12,16.35,14.18c0.14,51.16,0.37,102.32,0.32,153.48
		c-0.06,61.82-0.22,123.64-0.66,185.45c-0.18,24.8-0.59,49.59-6.41,74c-20.38,85.54-93.05,149.4-180.76,158.21
		c-10.09,1.01-20.27,1.52-30.41,1.56c-39.83,0.18-79.65,0.07-119.48,0.07C1009.74,1038.78,1007.96,1038.78,1004.94,1038.78z"/>
	<path d="M462.4,680.49c0-27.33,0.08-54.65-0.03-81.98c-0.06-16.16-0.43-32.31-0.65-48.47c-0.02-1.17-0.05-2.33,0-3.5
		c0.49-11.01,4.77-15.38,15.85-15.5c17.66-0.18,35.32-0.11,52.99-0.09c50.15,0.05,100.29,0,150.44,0.24
		c36.97,0.18,73.14,5.3,107.05,20.89c78.79,36.2,126.68,97.67,141.59,182.44c24.07,136.91-66.42,261.23-203.57,284.85
		c-122.26,21.05-237.82-63.85-259.37-180.27c-3.67-19.83-4.03-40.41-4.45-60.68c-0.6-28.8,0.17-57.64,0.35-86.46
		c0.02-3.82,0-7.65,0-11.47C462.53,680.49,462.47,680.49,462.4,680.49z"/>
	<path d="M1288.67,40.89c12.73-0.62,28.22,2.5,43.67,6.71c32.3,8.81,59.61,25.82,81.91,50.39c22.04,24.3,35.99,52.83,41.97,85.39
		c2.81,15.32,3.79,30.67,2.48,45.89c-1.64,18.99-6.04,37.56-13.76,55.28c-9.5,21.81-22.58,41.12-39.67,57.48
		c-21.1,20.2-45.76,34.72-74.26,41.9c-15.07,3.8-30.45,5.75-46.13,4.62c-11.26-0.81-22.7-0.14-33.81-1.83
		c-10.2-1.55-20.28-4.76-30.01-8.33c-26.63-9.76-48.83-26.33-67.38-47.44c-20.24-23.04-34.61-49.51-40.51-79.86
		c-2.34-12.03-4.19-24.44-3.91-36.63c0.75-32.62,9.38-63.42,27.2-90.87c8.17-12.58,18.08-24.36,28.77-34.91
		c14.95-14.75,32.74-25.76,52.26-33.98C1239.23,45.56,1261.72,40.73,1288.67,40.89z"/>
</g>
</svg>
